<svg id="Слой_1" data-name="Слой 1" xmlns="http://www.w3.org/2000/svg" viewBox="0 0 97.06 53"><defs><style>.cls-1{fill:#fff;}.cls-2{fill:#201600;}</style></defs><title>logo</title><path class="cls-1" d="M61,5l0,0a6.23,6.23,0,0,1-.19,3.38A26.68,26.68,0,0,1,59,11.81l-.91,1.59S51,26.06,50.73,27.48a4,4,0,0,0,0,2.13,4,4,0,0,0,1.84-1.08c1.08-1,8.43-13.48,8.43-13.48l.91-1.59a27.62,27.62,0,0,1,2-3.3,6.19,6.19,0,0,1,2.82-1.87l.06,0A2.48,2.48,0,1,0,69.25,4l0,0a1.53,1.53,0,0,1,.57-.89c.47-.25,1.43-.33,1.35-.89s-2.5.13-3.52,1.51a2.49,2.49,0,0,0-1.95,3.21c-.23.36-.79,1.2-1.67,2.35a3,3,0,0,1-2.4,1.43,3,3,0,0,1,0-2.79c.55-1.35,1-2.25,1.18-2.63A2.44,2.44,0,0,0,64.41,4.1,2.49,2.49,0,1,0,61,5Zm5.31.18a1.94,1.94,0,1,1,.72,2.65A1.94,1.94,0,0,1,66.33,5.2Zm-6.11,7.87a.67.67,0,1,1-.91.25A.65.65,0,0,1,60.22,13.07Zm3-11.89a1.94,1.94,0,1,1-2.65.71A1.94,1.94,0,0,1,63.22,1.18Z"/><path class="cls-1" d="M42,29l.31-.16.3-.16,3-1.56a.24.24,0,0,0-.22-.42l-3,1.56-.28-.54,3-1.56a.24.24,0,0,0,.1-.33.24.24,0,0,0-.32-.1l-3,1.57-.28-.54,3-1.57a.24.24,0,0,0,.1-.32.26.26,0,0,0-.33-.1l-3,1.56-.29-.54,3-1.56a.23.23,0,0,0,.1-.32.24.24,0,0,0-.32-.1l-3,1.56-.28-.54,3-1.56a.24.24,0,0,0,.1-.32.23.23,0,0,0-.32-.1l-3,1.56-.28-.54,3-1.56a.24.24,0,1,0-.23-.43l-3,1.57-.29-.55,3-1.56a.24.24,0,0,0,.1-.32.24.24,0,0,0-.32-.1l-3,1.56-.29-.54,3-1.56a.24.24,0,0,0-.22-.42l-3,1.56-.28-.54,3-1.56a.24.24,0,0,0,.1-.33A.23.23,0,0,0,41.3,19l-3,1.56L38.05,20l3-1.57a.24.24,0,0,0,.1-.32.25.25,0,0,0-.33-.1l-3,1.56L37.54,19l3-1.56a.23.23,0,0,0,.1-.32.24.24,0,0,0-.32-.1l-3,1.56L37,18l3-1.56a.24.24,0,0,0,.1-.32.23.23,0,0,0-.32-.1l-3,1.56-.28-.54,3-1.56a.26.26,0,0,0,.1-.33.25.25,0,0,0-.33-.1l-3,1.56L36,16.11l3-1.56a.23.23,0,0,0,.1-.32.24.24,0,0,0-.32-.1l-3,1.56-.28-.54,3-1.56a.24.24,0,0,0,.1-.32.23.23,0,0,0-.32-.1l-3,1.56L35,14.19l3-1.56a.24.24,0,0,0,.1-.32.24.24,0,0,0-.33-.1l-3,1.56-.29-.54,3-1.57a.23.23,0,0,0,.1-.32.24.24,0,0,0-.32-.1l-3,1.56L34,12.26l3-1.56a.24.24,0,0,0-.22-.42l-3,1.56-.28-.54,3-1.56a.23.23,0,0,0,.1-.32.23.23,0,0,0-.32-.1l-3,1.56L33,10.34l3-1.56a.26.26,0,0,0,.1-.33.25.25,0,0,0-.33-.1l-3,1.57-.29-.55,3-1.56a.23.23,0,0,0,.1-.32.24.24,0,0,0-.32-.1L32.25,9,32,8.41l3-1.56a.23.23,0,0,0,.1-.32.23.23,0,0,0-.32-.1L31.75,8l-.29-.54,3-1.56a.24.24,0,0,0-.23-.43L31.24,7,31,6.49l3-1.57A.23.23,0,0,0,34,4.6a.24.24,0,0,0-.32-.1l-3,1.56-.28-.54,3-1.56a.24.24,0,0,0-.22-.42l-3,1.56-.28-.54,3-1.56a.24.24,0,0,0,.1-.32.24.24,0,0,0-.33-.1l-3,1.56-.29-.54L32.4,2a.25.25,0,0,0,.1-.33.24.24,0,0,0-.32-.1l-3,1.56-.28-.54,3-1.56a.24.24,0,0,0-.22-.42L28.4,2.37h0l-.3.15a1.54,1.54,0,0,0-.64,2.07L39.94,28.31A1.52,1.52,0,0,0,42,29Z"/><path class="cls-1" d="M71.74,49.81c-4.38,0-8.76.14-13.13.19a12.67,12.67,0,0,0-3.18.47,5.6,5.6,0,0,0-1.82,1.06c-.93.74-1.68.82-2.51,0a3.58,3.58,0,0,0-5.2.06,1.46,1.46,0,0,1-2.15.17C42.23,50.26,40.33,50,38.37,50c-5.89-.07-11.78-.1-17.67-.16-2.95,0-5.91,0-8.86-.14a10.78,10.78,0,0,1-10.4-8.11,19.28,19.28,0,0,1-.63-3,1.69,1.69,0,0,1,1.06-1.87,3.18,3.18,0,0,0,.2-5.52A2.24,2.24,0,0,1,.82,28.42c.64-3.11,1.76-6,4.38-8.06A11.52,11.52,0,0,1,12.37,18c6-.09,12.08-.08,18.12-.15q4.82-.06,9.63-.25a5.13,5.13,0,0,0,3.38-1.44,1.63,1.63,0,0,1,2.42,0c1.82,1.59,3.36,1.58,5.23,0A1.56,1.56,0,0,1,53.32,16a6.88,6.88,0,0,0,5.12,1.76c6.1.07,12.21.1,18.31.16,2.57,0,5.13.06,7.7.09a13.43,13.43,0,0,1,5,1,10.49,10.49,0,0,1,6,6.77A20.91,20.91,0,0,1,96.25,29a1.8,1.8,0,0,1-1.12,2A3.17,3.17,0,0,0,95,36.54a2.23,2.23,0,0,1,1.25,2.74c-.65,3.08-1.74,6-4.33,8a11.23,11.23,0,0,1-6.58,2.37c-2.26.13-4.53.12-6.79.14s-4.53,0-6.8,0Zm-46-30.65v0H24.39c-4.24,0-8.49.05-12.74.16a9.44,9.44,0,0,0-5.73,2.09c-2.26,1.79-3.22,4.32-3.82,7-.11.49-.35,1.17.42,1.57a4.46,4.46,0,0,1,0,7.82.64.64,0,0,0-.42.77,29.36,29.36,0,0,0,.81,3.36,9.27,9.27,0,0,0,4.27,5.24,12.09,12.09,0,0,0,6,1.37c4.17,0,8.33.05,12.49.09,4.62,0,9.23.09,13.84.2a7,7,0,0,1,4.91,1.85c.29.29.48.15.76,0a9,9,0,0,1,2.22-1.27,4.52,4.52,0,0,1,4.53,1.19c.21.2.41.51.75.18a8,8,0,0,1,5.79-2l16-.19c3.77-.05,7.55,0,11.31-.19a8.79,8.79,0,0,0,7.64-4.7,21.14,21.14,0,0,0,1.6-4.21c.15-.49.43-1.28-.34-1.66a4.5,4.5,0,0,1,0-7.92.86.86,0,0,0,.38-.69,19.62,19.62,0,0,0-.67-3.06,9.07,9.07,0,0,0-6.46-6.4,20.8,20.8,0,0,0-4.73-.54c-4.14-.09-8.28,0-12.42-.08-4.45-.05-8.89-.11-13.33-.23a6.73,6.73,0,0,1-4.65-1.81.45.45,0,0,0-.76,0,4.75,4.75,0,0,1-6.88,0c-.25-.25-.46-.27-.71,0a7,7,0,0,1-4.84,1.85C34.94,19,30.35,19.08,25.75,19.16Z"/><path class="cls-2" d="M44.69,52.42A1.64,1.64,0,0,1,43.55,52a7.05,7.05,0,0,0-5.19-1.69l-10.29-.09L20.7,50.1H18.5c-2.19,0-4.45,0-6.67-.12A11.15,11.15,0,0,1,1.16,41.65a21,21,0,0,1-.64-3.06,2,2,0,0,1,1.23-2.16,2.84,2.84,0,0,0,1.53-2.59,2.59,2.59,0,0,0-1.34-2.42,2.52,2.52,0,0,1-1.4-3.05c.54-2.62,1.53-5.91,4.48-8.23a11.81,11.81,0,0,1,7.35-2.44c3.43-.06,6.92-.08,10.3-.1l7.82-.06c3.09,0,6.33-.12,9.62-.24a4.91,4.91,0,0,0,3.2-1.37,1.91,1.91,0,0,1,2.8,0c1.7,1.49,3.1,1.48,4.85,0a1.84,1.84,0,0,1,2.56-.15,6.67,6.67,0,0,0,4.92,1.67l11.34.11,7,0,7.7.1a13.5,13.5,0,0,1,5.09,1,10.79,10.79,0,0,1,6.21,6.94A22.21,22.21,0,0,1,96.53,29a2.06,2.06,0,0,1-1.28,2.33,2.8,2.8,0,0,0-1.48,2.55,2.61,2.61,0,0,0,1.35,2.42,2.52,2.52,0,0,1,1.4,3.06c-.55,2.6-1.54,5.88-4.43,8.18A11.62,11.62,0,0,1,85.34,50c-1.82.1-3.68.11-5.48.12H71.74c-2.68,0-5.41,0-8,.1l-5.08.08a12.1,12.1,0,0,0-3.1.47,5.22,5.22,0,0,0-1.72,1c-1.1.88-2,.86-2.89,0a3.41,3.41,0,0,0-2.37-1h0a3.36,3.36,0,0,0-2.41,1.06A2,2,0,0,1,44.69,52.42Zm0-36.53a1.46,1.46,0,0,0-1,.46,5.41,5.41,0,0,1-3.57,1.52c-3.3.13-6.54.21-9.64.24q-3.9,0-7.82.06c-3.37,0-6.86,0-10.3.1a11.14,11.14,0,0,0-7,2.32c-2.19,1.72-3.5,4.15-4.27,7.89a2,2,0,0,0,1.1,2.43,3.19,3.19,0,0,1,1.66,2.93A3.41,3.41,0,0,1,2,36.94a1.4,1.4,0,0,0-.91,1.57,19.82,19.82,0,0,0,.62,3A10.49,10.49,0,0,0,11.85,49.4c2.22.09,4.47.11,6.66.12h2.2l7.37.07q5.15,0,10.29.09c1.94,0,4,.26,5.58,1.85a1.17,1.17,0,0,0,1.74-.17,3.88,3.88,0,0,1,5.61-.06c.69.69,1.27.69,2.14,0a5.66,5.66,0,0,1,1.92-1.12,13.17,13.17,0,0,1,3.24-.48l5.08-.08c2.64-.05,5.37-.11,8.06-.11h8.12c1.79,0,3.64,0,5.45-.12a10.9,10.9,0,0,0,6.42-2.31c2.75-2.19,3.7-5.35,4.23-7.86a2,2,0,0,0-1.1-2.43,3.19,3.19,0,0,1-1.66-2.94A3.36,3.36,0,0,1,95,30.8a1.51,1.51,0,0,0,1-1.73,21,21,0,0,0-.76-3.27,10.23,10.23,0,0,0-5.89-6.59,13,13,0,0,0-4.87-1l-7.7-.1-7,0L58.43,18a7.22,7.22,0,0,1-5.31-1.84,1.3,1.3,0,0,0-1.78.17c-2,1.69-3.69,1.69-5.6,0A1.6,1.6,0,0,0,44.7,15.89Zm7.64,35.25a.85.85,0,0,1-.58-.32l-.08-.08a4.25,4.25,0,0,0-4.26-1.13,6.89,6.89,0,0,0-1.73,1l-.41.28c-.3.2-.67.45-1.12,0a6.69,6.69,0,0,0-4.71-1.78c-4.2-.09-8.48-.14-12.61-.18H25.61l-6.4,0-6.09,0A12.45,12.45,0,0,1,7,47.39,9.56,9.56,0,0,1,2.6,42,17.63,17.63,0,0,1,2,39.51c-.07-.3-.13-.61-.2-.91a.92.92,0,0,1,.57-1.08,4.05,4.05,0,0,0,2.18-3.66,4,4,0,0,0-2.14-3.65,1.37,1.37,0,0,1-.6-1.78l0-.11c.51-2.3,1.43-5.18,3.92-7.16A9.68,9.68,0,0,1,11.64,19c3-.08,6.13-.1,9.12-.13q1.81,0,3.63,0H26v0l3.65-.06c3.23-.06,6.56-.12,9.84-.2a6.57,6.57,0,0,0,4.65-1.78.71.71,0,0,1,1.11,0,4.52,4.52,0,0,0,3.24,1.39h0a4.53,4.53,0,0,0,3.23-1.38.73.73,0,0,1,1.16,0,6.4,6.4,0,0,0,4.46,1.73c4.66.13,9.35.19,13.32.23l5,0c2.42,0,4.92,0,7.38.06a20.38,20.38,0,0,1,4.8.55A9.31,9.31,0,0,1,94.58,26,18.49,18.49,0,0,1,95.23,29l0,.2a1.1,1.1,0,0,1-.53,1,4.22,4.22,0,0,0,0,7.41c.94.48.66,1.42.5,1.93l0,.07a21,21,0,0,1-1.62,4.27,9.05,9.05,0,0,1-7.87,4.84c-2.7.15-5.44.16-8.09.17-1.08,0-2.16,0-3.24,0l-8,.09-8,.1a7.69,7.69,0,0,0-5.59,1.88A.69.69,0,0,1,52.34,51.14Zm-3.7-2.29a5,5,0,0,1,3.42,1.47l.1.1c.06,0,.14.14.18.15a.24.24,0,0,0,.08-.06,8.33,8.33,0,0,1,6-2l8-.1,8-.09,3.25,0c2.64,0,5.38,0,8.06-.17a8.49,8.49,0,0,0,7.4-4.54,20.82,20.82,0,0,0,1.57-4.16l0-.07c.17-.59.26-1-.22-1.26A4.66,4.66,0,0,1,92,33.88a4.72,4.72,0,0,1,2.52-4.25.73.73,0,0,0,.23-.39l0-.19A16.78,16.78,0,0,0,94,26.22,8.78,8.78,0,0,0,87.78,20a20.76,20.76,0,0,0-4.67-.53c-2.45-.05-5-.06-7.37-.06-1.69,0-3.37,0-5,0-4,0-8.66-.1-13.32-.22a7,7,0,0,1-4.85-1.9c-.17-.17-.2-.16-.35,0a5.1,5.1,0,0,1-3.64,1.55h0a5.11,5.11,0,0,1-3.65-1.56c-.14-.15-.17-.15-.31,0a7.14,7.14,0,0,1-5,1.94c-3.28.08-6.62.14-9.85.2l-4.22.08v-.05H24.4l-3.64,0c-3,0-6.07.05-9.1.12a9.16,9.16,0,0,0-5.56,2c-2.35,1.86-3.2,4.51-3.73,6.84l0,.12c-.12.54-.17.89.31,1.14A4.63,4.63,0,0,1,5.1,33.86,4.67,4.67,0,0,1,2.61,38c-.28.14-.31.26-.27.45s.13.61.2.92a18.06,18.06,0,0,0,.6,2.41,9,9,0,0,0,4.14,5.08,11.83,11.83,0,0,0,5.85,1.34l6.08,0,6.4,0h1.23c4.14,0,8.41.09,12.62.18a7.19,7.19,0,0,1,5.1,1.94c.12.12.12.12.38-.06l.43-.29a7.34,7.34,0,0,1,1.88-1A4.91,4.91,0,0,1,48.64,48.85Z"/><path d="M25.75,19.16c4.6-.08,9.19-.15,13.78-.27A7,7,0,0,0,44.37,17c.25-.25.46-.23.71,0a4.75,4.75,0,0,0,6.88,0,.45.45,0,0,1,.76,0,6.73,6.73,0,0,0,4.65,1.81c4.44.12,8.88.18,13.33.23,4.14,0,8.28,0,12.42.08a20.8,20.8,0,0,1,4.73.54,9.07,9.07,0,0,1,6.46,6.4A19.62,19.62,0,0,1,95,29.19a.86.86,0,0,1-.38.69,4.5,4.5,0,0,0,0,7.92c.77.38.49,1.17.34,1.66a21.14,21.14,0,0,1-1.6,4.21,8.79,8.79,0,0,1-7.64,4.7c-3.76.2-7.54.14-11.31.19l-16,.19a8,8,0,0,0-5.79,2c-.34.33-.54,0-.75-.18a4.52,4.52,0,0,0-4.53-1.19,9,9,0,0,0-2.22,1.27c-.28.19-.47.33-.76,0a7,7,0,0,0-4.91-1.85c-4.61-.11-9.22-.15-13.84-.2-4.16,0-8.32-.05-12.49-.09a12.09,12.09,0,0,1-6-1.37A9.27,9.27,0,0,1,2.87,41.9a29.36,29.36,0,0,1-.81-3.36.64.64,0,0,1,.42-.77,4.46,4.46,0,0,0,0-7.82c-.77-.4-.53-1.08-.42-1.57.6-2.68,1.56-5.21,3.82-7a9.44,9.44,0,0,1,5.73-2.09c4.25-.11,8.5-.12,12.74-.16h1.36Z"/><path class="cls-1" d="M12.8,31.5v5H11.57v-11H12.8v5h2.71v-5h1.23v11H15.51v-5Z"/><path class="cls-1" d="M22.25,30.32v1.1h-2.7v3.93h3.31v1.12H18.32v-11h4.54v1.12H19.55v3.77Z"/><path class="cls-1" d="M25.56,34.25l-.43,2.22H24l2.12-11h1.78l2.11,11H28.77l-.42-2.22Zm.15-1.06h2.46l-1.24-6.37Z"/><path class="cls-1" d="M33.87,25.43c1.71,0,2.5,1,2.5,2.75v5.56c0,1.69-.79,2.73-2.5,2.73H31.28v-11Zm0,9.92c.88,0,1.31-.55,1.31-1.56V28.11c0-1-.43-1.56-1.33-1.56H32.51v8.8Z"/><path class="cls-1" d="M43.33,31.5v5H42.1v-11h1.23v5H46v-5h1.23v11H46v-5Z"/><path class="cls-1" d="M50,33.87c0,1,.39,1.59,1.29,1.59s1.28-.6,1.28-1.59V25.43h1.15V33.8c0,1.68-.77,2.8-2.47,2.8s-2.46-1.12-2.46-2.8V25.43H50Z"/><path class="cls-1" d="M56.35,36.47h-1.1v-11h1.56l2.55,8v-8h1.09v11H59.17l-2.82-8.93Z"/><path class="cls-1" d="M63.63,36.47V26.55h-2V25.43h5.3v1.12h-2v9.92Z"/><path class="cls-1" d="M72,30.32v1.1h-2.7v3.93h3.32v1.12H68.06v-11h4.55v1.12H69.29v3.77Z"/><path class="cls-1" d="M76.51,25.43c1.74,0,2.46.88,2.46,2.52v.9c0,1.22-.42,2-1.37,2.27,1,.3,1.39,1.12,1.39,2.31v1.71a2.85,2.85,0,0,0,.22,1.33H78a2.79,2.79,0,0,1-.21-1.34V33.39c0-1.24-.58-1.64-1.61-1.64h-.87v4.72H74.06v-11Zm-.31,5.21c1,0,1.56-.32,1.56-1.52V28.07c0-1-.36-1.52-1.28-1.52h-1.2v4.09Z"/><path class="cls-1" d="M85.36,28.08v.3H84.19V28c0-1-.37-1.58-1.26-1.58S81.67,27,81.67,28c0,2.48,3.71,2.71,3.71,5.82,0,1.67-.81,2.76-2.5,2.76s-2.47-1.09-2.47-2.76v-.63h1.15v.69c0,1,.41,1.58,1.29,1.58s1.3-.58,1.3-1.58c0-2.46-3.69-2.69-3.69-5.8,0-1.7.78-2.76,2.44-2.76S85.36,26.41,85.36,28.08Z"/><path class="cls-1" d="M28.7,38.3c.52,0,.72.25.72.74v.15c0,.36-.1.57-.39.67.33.09.45.34.45.71v.28a.68.68,0,0,1-.76.78H28V38.3Zm-.09,1.41c.3,0,.45-.09.45-.44v-.2c0-.29-.1-.43-.37-.43h-.36v1.07Zm.11,1.58c.27,0,.4-.14.4-.45v-.29c0-.38-.15-.5-.47-.5h-.32v1.24Z"/><path class="cls-1" d="M32.73,41l-.13.67h-.34l.64-3.33h.54l.63,3.33H33.7L33.57,41Zm.05-.32h.74l-.37-1.92Z"/><path class="cls-1" d="M37.64,38.3c.53,0,.75.26.75.76v.27c0,.37-.13.6-.42.69.31.09.42.33.42.69v.52a.84.84,0,0,0,.07.4h-.38a.89.89,0,0,1-.06-.4V40.7c0-.37-.18-.49-.49-.49h-.26v1.42H36.9V38.3Zm-.09,1.57c.29,0,.47-.1.47-.46v-.32c0-.3-.11-.45-.39-.45h-.36v1.23Z"/><path class="cls-1" d="M42.06,38.3c.52,0,.72.25.72.74v.15c0,.36-.1.57-.39.67.33.09.45.34.45.71v.28a.68.68,0,0,1-.76.78h-.77V38.3ZM42,39.71c.3,0,.45-.09.45-.44v-.2c0-.29-.1-.43-.37-.43h-.37v1.07Zm.11,1.58c.27,0,.39-.14.39-.45v-.29c0-.38-.14-.5-.46-.5h-.33v1.24Z"/><path class="cls-1" d="M46.9,39.77v.34h-.81v1.18h1v.34H45.72V38.3h1.37v.34h-1v1.13Z"/><path class="cls-1" d="M50.71,38.3c.52,0,.74.26.74.76v.27c0,.37-.13.6-.41.69.3.09.42.33.42.69v.52a.85.85,0,0,0,.06.4h-.37a.74.74,0,0,1-.07-.4V40.7c0-.37-.17-.49-.48-.49h-.26v1.42H50V38.3Zm-.1,1.57c.3,0,.47-.1.47-.46v-.32c0-.3-.1-.45-.38-.45h-.36v1.23Z"/><path class="cls-1" d="M55.82,39.1v.09h-.35v-.11c0-.3-.12-.48-.38-.48s-.38.18-.38.47c0,.75,1.12.82,1.12,1.76,0,.51-.25.83-.76.83s-.74-.32-.74-.83v-.19h.34v.21c0,.3.13.48.39.48s.39-.18.39-.48c0-.74-1.11-.81-1.11-1.75,0-.52.24-.83.74-.83S55.82,38.59,55.82,39.1Z"/><path class="cls-1" d="M59.06,40.13v1.5h-.37V38.3h.37v1.5h.82V38.3h.37v3.33h-.37v-1.5Z"/><path class="cls-1" d="M63.14,39.1c0-.51.25-.83.76-.83s.76.32.76.83v1.73c0,.5-.25.83-.76.83s-.76-.33-.76-.83Zm.36,1.75c0,.3.13.48.4.48s.39-.18.39-.48V39.08c0-.3-.12-.48-.39-.48s-.4.18-.4.48Z"/><path class="cls-1" d="M68.28,38.3c.52,0,.75.31.75.81v.4c0,.53-.25.81-.78.81h-.33v1.31h-.37V38.3Zm0,1.68c.28,0,.41-.12.41-.44v-.45c0-.3-.11-.45-.38-.45h-.36V40Z"/><rect class="cls-1" x="11.48" y="39.86" width="14.16" height="0.32"/><rect class="cls-1" x="71.03" y="39.86" width="14.16" height="0.32"/></svg>